<?xml version="1.0" encoding="UTF-8"?>
<svg width="845px" height="1283px" viewBox="0 0 845 1283" version="1.1" xmlns="http://www.w3.org/2000/svg" xmlns:xlink="http://www.w3.org/1999/xlink">
    <title>Illustration</title>
    <defs>
        <polygon id="path-1" points="0 0 578.940919 0 578.940919 328.403471 0 328.403471"></polygon>
        <polygon id="path-3" points="0 0 328.437637 0 328.437637 578.880694 0 578.880694"></polygon>
    </defs>
    <g id="🎨-Design" stroke="none" stroke-width="1" fill="none" fill-rule="evenodd">
        <g id="Home" transform="translate(-835.000000, -128.000000)">
            <g id="Illustration" transform="translate(835.000000, 128.000000)">
                <path d="M913.297804,110.498232 C898.97703,108.976269 884.392231,109.934737 869.907761,109.929471 C829.168539,109.924205 803.816757,125.933789 791.360007,164.614842 C781.802264,194.301035 775.89336,225.235345 769.699309,255.885273 C766.319775,272.60581 760.152126,277.993246 744.817493,270.509818 C696.97597,247.164263 672.363461,205.223364 664.764791,155.672646 C658.718594,116.206913 661.527831,75.3456082 661.015621,35.0899288 C660.556215,-1.41613733 660.572057,-2.15342083 624.183985,1.37500737 C619.426235,1.83317641 611.922614,9.53778904 611.621625,14.2669361 C610.25925,35.6481577 611.024926,57.1610372 611.030206,78.6265198 C611.030206,97.000678 612.471789,115.51176 610.76618,133.727929 C605.211072,193.031855 586.570832,244.815488 526.504903,271.283966 C514.555083,276.550277 507.854102,273.511615 505.678527,260.956731 C502.77424,244.162466 500.281834,227.289206 497.588768,210.458077 C492.165673,176.569367 482.930041,144.639725 452.693777,123.484955 C422.552561,102.398647 388.466797,111.109124 355.658918,111.4725 C352.891925,111.498831 347.484671,120.509489 347.949357,124.854196 C350.769155,151.317407 354.396874,177.722689 358.758584,203.980515 C367.170454,254.595027 414.911647,304.682909 461.43832,314.146469 C515.283795,325.100396 557.126645,303.771837 594.106136,267.592282 C597.248046,264.506224 601.467182,262.167982 605.49094,261.198981 C613.865846,277.38762 611.299513,296.651785 610.908754,314.199132 C610.681692,324.410509 615.180696,328.649889 625.14504,328.128524 C630.404439,327.854676 635.743046,327.575562 640.944359,328.170655 C656.479653,329.950668 660.968096,321.361315 660.931132,307.969087 C660.91001,299.527191 655.254572,258.613222 667.59515,257.322976 C678.990515,256.13279 705.071009,288.557465 714.670997,295.329941 C767.043207,332.283643 841.810107,320.002607 882.501804,270.557215 C918.610008,226.694113 923.600101,174.425979 926.862144,121.446892 C927.074684,117.907932 918.367104,111.035396 913.297804,110.498232" id="Fill-1" fill="#F9F3E1"></path>
                <g id="Group-5" transform="translate(347.921225, 954.596529)">
                    <mask id="mask-2" fill="white">
                        <use xlink:href="#path-1"></use>
                    </mask>
                    <g id="Clip-4"></g>
                    <path d="M465.4243,14.2568861 C411.573489,3.30304843 369.735877,24.6367005 332.756349,60.8159624 C329.614435,63.9019955 325.395295,66.2402185 321.366253,67.2039456 C312.996618,51.0154374 315.562954,31.7514287 315.953713,14.2042234 C316.180776,3.99292955 311.681767,-0.241150003 301.717413,0.280210539 C296.458009,0.55405648 291.119396,0.833168689 285.918077,0.232814126 C270.382768,-1.54718449 265.89432,7.04209878 265.931284,20.4342186 C265.952406,28.8760463 271.60785,69.7949495 259.267259,71.0799189 C247.871883,72.2700955 221.786081,39.8456828 212.191364,33.073262 C159.819101,-3.88014126 85.0521242,8.40606222 44.3551053,57.8457872 C8.25214464,101.7138 3.25676643,153.981511 0,206.954902 C-0.212539574,210.493834 8.49504887,217.366314 13.5643544,217.903474 C27.8851427,219.430691 42.4699573,218.472231 56.9544419,218.472231 C97.693705,218.477497 123.045513,202.473308 135.502276,163.787303 C145.060029,134.101349 150.968938,103.16729 157.162996,72.5228764 C160.542533,55.7972089 166.710188,50.4098166 182.044838,57.8931836 C229.886409,81.2385501 254.498944,123.179109 262.092341,172.729426 C268.143825,212.194839 265.334584,253.061079 265.841515,293.311167 C266.306201,329.816937 266.29036,330.559481 302.678469,327.031081 C307.436223,326.56765 314.939852,318.863099 315.240842,314.139257 C316.603218,292.758208 315.837541,271.240237 315.832261,249.774928 C315.832261,231.400919 314.390677,212.895253 316.096287,194.679231 C321.651401,135.375786 340.29166,83.5873057 400.357651,57.1190422 C412.307483,51.8527741 419.008471,54.8914108 421.184048,67.4461939 C424.088338,84.2455892 426.580746,101.113446 429.273815,117.949705 C434.691635,151.83814 443.932557,183.767524 474.168852,204.916856 C504.310098,226.00826 538.390617,217.292587 571.20381,216.93448 C573.970806,216.902883 579.372785,207.892298 578.913379,203.547627 C576.093578,177.089896 572.465856,150.684828 568.104141,124.427215 C559.692262,73.8078458 511.951021,23.7203699 465.4243,14.2568861" id="Fill-3" fill="#F9F3E1" mask="url(#mask-2)"></path>
                </g>
                <path d="M568.424116,478.878487 C580.172952,474.377426 603.111155,487.68514 602.060832,501.01927 C599.400719,534.808926 569.421659,574.668675 607.30189,599.419228 C632.879095,616.129153 669.682613,606.641001 682.539829,578.430125 C690.155988,561.725482 679.304413,539.273006 675.113678,522.304217 C673.055257,513.973028 668.357834,501.637373 672.474677,493.142413 C678.813559,480.07243 698.627184,474.641572 709.499871,483.944822 C706.222231,494.933328 707.75813,506.45541 717.200478,516.165446 C725.877516,525.072475 736.143232,532.558395 746.588401,539.679792 C751.950853,547.186844 758.194731,553.83806 766.797877,557.890071 C771.015001,559.871172 775.554084,560.991154 780.177615,561.413789 C786.046755,565.15939 791.477821,569.380456 793.187894,573.860385 C797.690031,585.6202 784.389462,608.579838 771.067781,607.528534 C737.309671,604.865934 697.487135,574.85886 672.764967,612.774489 C656.065364,638.380877 665.549936,675.213504 693.729197,688.082735 C710.418244,695.706011 732.855036,684.844296 749.802705,680.649645 C758.131395,678.5893 770.450255,673.887487 778.937285,678.008177 C792.174517,684.43751 797.600305,704.739831 787.77794,715.51702 C786.743452,716.652851 785.566457,717.741136 784.31557,718.808289 C776.261337,718.517727 768.265162,721.201458 761.219027,728.063992 C757.001902,732.184681 753.12257,736.685743 749.427967,741.371706 C735.847664,749.660632 721.227595,757.569187 714.250074,772.424802 C710.566028,780.280527 709.742659,789.256234 711.209944,797.841005 C708.78734,800.7836 706.227509,803.108092 703.577951,804.122415 C691.829115,808.628759 668.890912,795.315762 669.941235,781.981632 C672.601349,748.191976 702.580408,708.332227 664.700177,683.586957 C639.122973,666.877032 602.324732,676.365184 589.462238,704.570777 C581.846079,721.27542 592.697654,743.733179 596.888389,760.696685 C598.94681,769.033157 603.644233,781.363529 599.527391,789.858489 C593.188508,802.933755 573.374883,808.364612 562.507474,799.061363 C565.785114,788.072857 564.243937,776.545491 554.801589,766.840739 C546.124552,757.928427 535.858835,750.442507 525.413666,743.32111 C520.051214,735.819341 513.807336,729.162842 505.198913,725.116114 C500.992344,723.12973 496.447983,722.015031 491.824452,721.587113 C485.955312,717.841511 480.524246,713.620446 478.808895,709.140517 C474.312036,697.380702 487.612605,674.421064 500.934286,675.472368 C534.692396,678.134968 574.514932,708.147325 599.2371,670.226413 C615.931425,644.625307 606.457409,607.792681 578.272871,594.918167 C561.583824,587.300173 539.147031,598.156606 522.199362,602.351257 C513.870672,604.411602 501.551812,609.118697 493.064783,604.992725 C479.82755,598.563392 474.401762,578.261071 484.224127,567.489165 C485.258616,566.353334 486.43561,565.259766 487.686497,564.197896 C495.74073,564.488458 503.742184,561.799443 510.78304,554.93691 C515.005443,550.81622 518.879498,546.315159 522.5741,541.634478 C536.154403,533.34027 550.774473,525.436998 557.751993,510.581383 C561.441318,502.725658 562.259408,493.74995 560.792123,485.159897 C563.214727,482.222585 565.774558,479.89281 568.424116,478.878487 M433.792804,777.205858 C444.185193,788.807185 454.830926,799.800974 464.948858,810.181942 C510.983604,857.374406 563.125001,914.636144 634.256653,915.624053 C698.136329,916.511586 760.321766,854.030307 804.097527,813.029445 C850.765634,769.323719 903.640672,711.258974 904.585435,643.257027 C905.187127,600.100726 877.831236,560.552671 853.415191,527.233196 C818.216186,479.206029 781.22266,445.992213 733.857857,410.74975 C704.754946,389.094997 675.662591,367.899859 637.745414,367.376849 C573.000145,366.484032 517.079698,424.083879 473.414776,465.465113 C427.870884,508.63198 368.345561,572.692857 367.416632,639.765007 C366.698824,692.166445 398.789085,738.122701 433.792804,777.205858" id="Fill-9" fill="#F9F3E1"></path>
                <g id="Group-13" transform="translate(0.000000, 353.451193)">
                    <mask id="mask-4" fill="white">
                        <use xlink:href="#path-3"></use>
                    </mask>
                    <g id="Clip-12"></g>
                    <path d="M308.005071,265.900495 C299.562276,265.926895 258.638684,271.576517 257.353567,259.23711 C256.163254,247.842826 288.591383,221.764807 295.36458,212.165731 C332.316951,159.798492 320.034606,85.0386873 270.589216,44.3508526 C226.716175,8.24607533 174.442474,3.25645636 121.463013,0 C117.923675,-0.212516832 111.050408,8.48895626 110.50792,13.5577755 C108.985794,27.87719 109.944365,42.4658855 109.944365,56.9437005 C109.933831,97.6790554 125.945121,123.028432 164.635559,135.483999 C194.324915,145.040836 225.262519,150.949178 255.910444,157.142642 C272.638029,160.527134 278.020771,166.688918 270.536547,182.022096 C247.188505,229.859078 205.248406,254.469252 155.692411,262.067201 C116.222476,268.112824 75.351552,265.303853 35.0968523,265.816015 C-1.41310165,266.275377 -2.15573055,266.259536 1.37307343,302.644155 C1.83655813,307.401453 9.54199129,314.904361 14.2663751,315.205323 C35.6498738,316.567568 57.1703112,315.801965 78.6380799,315.801965 C97.0141949,315.796685 115.521982,314.355239 133.740091,316.060686 C193.050332,321.615267 244.844747,340.253738 271.316044,400.313966 C276.582915,412.267932 273.543931,418.962997 260.987709,421.138365 C244.186388,424.042376 227.316598,426.534546 210.47841,429.227356 C176.586091,434.649937 144.653049,443.884692 123.501292,474.118087 C102.407471,504.256441 111.124144,538.338971 111.482291,571.143736 C111.513892,573.910466 120.52551,579.317207 124.870679,578.852565 C151.331442,576.033034 177.739536,572.405661 204.000158,568.044364 C254.625328,559.633292 304.718544,511.901911 314.183112,465.374374 C325.138205,411.534009 303.802108,369.69513 267.6187,332.719149 C264.532313,329.577537 262.193822,325.358801 261.229985,321.335426 C277.420348,312.961314 296.686564,315.527404 314.230514,315.918125 C324.448245,316.145166 328.688076,311.646589 328.161389,301.683191 C327.887512,296.429571 327.608368,291.086191 328.203524,285.885371 C329.988994,270.351552 321.398726,265.863535 308.005071,265.900495" id="Fill-11" fill="#F9F3E1" mask="url(#mask-4)"></path>
                </g>
            </g>
        </g>
    </g>
</svg>