<?xml version="1.0" encoding="UTF-8"?>
<svg width="414px" height="77px" viewBox="0 0 414 77" version="1.1" xmlns="http://www.w3.org/2000/svg" xmlns:xlink="http://www.w3.org/1999/xlink">
    <title>logo</title>
    <defs>
        <polygon id="path-1" points="0 0 65.6945491 0 65.6945491 76.8036247 0 76.8036247"></polygon>
        <polygon id="path-3" points="0 0 17.68212 0 17.68212 76.803558 0 76.803558"></polygon>
        <polygon id="path-5" points="0 0 53.5302721 0 53.5302721 76.8040252 0 76.8040252"></polygon>
        <polygon id="path-7" points="0 0 57.3949032 0 57.3949032 76.8038917 0 76.8038917"></polygon>
        <polygon id="path-9" points="0 0 63.5199767 0 63.5199767 76.8039585 0 76.8039585"></polygon>
    </defs>
    <g id="🎨-Design" stroke="none" stroke-width="1" fill="none" fill-rule="evenodd">
        <g id="Home" transform="translate(-118.000000, -72.000000)">
            <g id="Hero" transform="translate(-0.000000, 0.000000)">
                <g id="logo" transform="translate(118.000000, 72.000000)">
                    <g id="Group-3" transform="translate(99.536613, 0.000000)">
                        <mask id="mask-2" fill="white">
                            <use xlink:href="#path-1"></use>
                        </mask>
                        <g id="Clip-2"></g>
                        <path d="M47.9859464,28.8665646 C47.6426754,22.7196581 42.0037002,17.7128228 35.8554841,17.7128228 L19.1465206,17.7128228 C18.3420001,17.7128228 17.6901186,18.3662946 17.6901186,19.1719538 L17.6901186,39.922853 C17.6901186,40.7285123 18.3420001,41.3813165 19.1465206,41.3813165 L36.1940893,41.3813165 C36.4947013,41.3813165 36.7879813,41.3679668 37.0819279,41.3439372 C39.4568297,41.1710575 41.6344339,40.287302 43.4101112,38.9055997 C46.37024,36.6214522 48.2145715,32.9556024 47.9859464,28.8665646 M53.1050161,55.3879065 L64.4069622,74.6049158 C64.9788583,75.5774474 64.2783189,76.8036247 63.151857,76.8036247 L46.0063061,76.8036247 C45.4903999,76.8036247 45.0124867,76.5306217 44.7505343,76.0854065 L35.1769408,59.8066839 C34.9156549,59.3614687 34.4377418,59.0884657 33.9218355,59.0884657 L19.1451875,59.0884657 C18.340667,59.0884657 17.6887855,59.74127 17.6887855,60.5469292 L17.6887855,75.3451612 C17.6887855,76.1508204 17.0362374,76.8036247 16.2317169,76.8036247 L1.45706855,76.8036247 C0.652548082,76.8036247 0,76.1508204 0,75.3451612 L0,1.4581298 C0,0.652470533 0.652548082,-0.000333744518 1.45706855,-0.000333744518 L39.0689002,-0.000333744518 C46.8428208,-0.000333744518 56.6297089,5.36894806 60.6109854,12.0558532 C70.3332186,28.3846375 65.090838,45.0565112 53.4902794,53.4808903 C52.8883888,53.9180956 52.7284179,54.747117 53.1050161,55.3879065" id="Fill-1" fill="#F9F3E1" mask="url(#mask-2)"></path>
                    </g>
                    <g id="Group-6" transform="translate(180.303869, 0.000000)">
                        <mask id="mask-4" fill="white">
                            <use xlink:href="#path-3"></use>
                        </mask>
                        <g id="Clip-5"></g>
                        <path d="M0,75.3450944 L0,1.45873054 C0,0.653071273 0.651881536,-0.000400493422 1.456402,-0.000400493422 L16.2250515,-0.000400493422 C17.0295719,-0.000400493422 17.68212,0.653071273 17.68212,1.45873054 L17.68212,75.3450944 C17.68212,76.1507537 17.0295719,76.803558 16.2250515,76.803558 L1.456402,76.803558 C0.651881536,76.803558 0,76.1507537 0,75.3450944" id="Fill-4" fill="#F9F3E1" mask="url(#mask-4)"></path>
                    </g>
                    <g id="Group-9" transform="translate(214.487723, 0.000000)">
                        <mask id="mask-6" fill="white">
                            <use xlink:href="#path-5"></use>
                        </mask>
                        <g id="Clip-8"></g>
                        <path d="M19.1451875,59.0881987 L52.0738701,59.0881987 C52.8783906,59.0881987 53.5302721,59.741003 53.5302721,60.5466623 L53.5302721,75.3448942 C53.5302721,76.1505535 52.8783906,76.8040252 52.0738701,76.8040252 L1.45706855,76.8040252 C0.652548082,76.8040252 0,76.1505535 0,75.3448942 L0,1.45853029 C0,0.652871026 0.652548082,-0.000600740133 1.45706855,-0.000600740133 L16.2317169,-0.000600740133 C17.0362374,-0.000600740133 17.6887855,0.652871026 17.6887855,1.45853029 L17.6887855,57.6297352 C17.6887855,58.4353944 18.340667,59.0881987 19.1451875,59.0881987" id="Fill-7" fill="#F9F3E1" mask="url(#mask-6)"></path>
                    </g>
                    <g id="Group-12" transform="translate(282.387717, 0.000000)">
                        <mask id="mask-8" fill="white">
                            <use xlink:href="#path-7"></use>
                        </mask>
                        <g id="Clip-11"></g>
                        <path d="M57.3895708,1.45906428 L57.3949032,1.45906428 L57.3949032,16.2546263 C57.3949032,17.0602855 56.7430216,17.7130898 55.9385012,17.7130898 L19.1451875,17.7130898 C18.340667,17.7130898 17.6881189,18.3665616 17.6881189,19.1722208 L17.6881189,28.0885394 C17.6881189,28.8941987 18.340667,29.5470029 19.1451875,29.5470029 L38.2490491,29.5470029 C39.0535696,29.5470029 39.7054511,30.2004747 39.7054511,31.006134 L39.7054511,45.797691 C39.7054511,46.6033503 39.0535696,47.2561546 38.2490491,47.2561546 L19.1451875,47.2561546 C18.340667,47.2561546 17.6881189,47.9096263 17.6881189,48.7152856 L17.6881189,57.6362766 C17.6881189,58.4419358 18.340667,59.0947401 19.1451875,59.0947401 L55.9385012,59.0947401 C56.7430216,59.0947401 57.3949032,59.7482119 57.3949032,60.5538711 L57.3949032,75.2473073 L57.3895708,75.2473073 L57.3895708,75.3454282 C57.3895708,76.1510874 56.7376893,76.8038917 55.9331688,76.8038917 L1.45706855,76.8038917 C0.652548082,76.8038917 0,76.1510874 0,75.3454282 L0,1.4583968 C0,0.652737529 0.652548082,-6.67489037e-05 1.45706855,-6.67489037e-05 L55.9331688,-6.67489037e-05 C56.7376893,-6.67489037e-05 57.3895708,0.652737529 57.3895708,1.4583968 L57.3895708,1.45906428 Z" id="Fill-10" fill="#F9F3E1" mask="url(#mask-8)"></path>
                    </g>
                    <g id="Group-15" transform="translate(350.480023, 0.196042)">
                        <mask id="mask-10" fill="white">
                            <use xlink:href="#path-9"></use>
                        </mask>
                        <g id="Clip-14"></g>
                        <path d="M44.9156243,0 L62.0611751,0 C63.1883036,0 63.8881765,1.22684485 63.3162804,2.19937637 L42.0254828,38.4013117 L40.8057045,40.4792051 C40.6737285,40.7034814 40.6044077,40.9584622 40.6044077,41.2181155 L40.6044077,75.3454949 C40.6044077,76.1511542 39.9525262,76.8039585 39.1480057,76.8039585 L24.3720242,76.8039585 C23.5675038,76.8039585 22.9149557,76.1511542 22.9149557,75.3454949 L22.9149557,41.2074357 C22.9149557,40.9477824 22.845635,40.6921341 22.7136589,40.4678578 L21.4998795,38.4013117 L0.203749583,2.19937637 C-0.368146489,1.22684485 0.331726326,0 1.45885483,0 L18.6097381,0 C19.1256443,0 19.6028909,0.273003016 19.8648433,0.718218203 L30.5075759,18.812511 C31.0708069,19.7703578 32.4545554,19.7703578 33.0177864,18.812511 L43.660519,0.718218203 C43.9224714,0.273003016 44.399718,0 44.9156243,0" id="Fill-13" fill="#F9F3E1" mask="url(#mask-10)"></path>
                    </g>
                    <path d="M39.0873981,64.9572296 C39.0873981,68.4435248 39.0953967,71.3297474 39.0833989,74.21597 C39.078733,75.3086495 38.7347955,75.643729 37.6596576,75.6584138 C36.6591727,75.6724311 35.6546886,75.6143595 34.658203,75.6791059 C33.4510891,75.7578697 32.9465141,75.0837057 32.952513,73.968999 C32.967177,71.443888 32.952513,68.9181095 32.9511799,66.3929985 C32.9498468,64.3685042 33.0178345,62.34134 32.9298505,60.3208507 C32.8585301,58.6828326 32.7152228,57.0287948 32.3839497,55.4274886 C32.1666558,54.3748584 31.5494346,53.4076668 31.1315106,52.3937509 C30.9275477,51.899809 30.7882396,51.3798351 30.5902756,50.8838907 C29.7410966,48.7566032 28.4153375,46.9630601 26.7116471,45.4518649 C25.8038121,44.6462057 24.8966436,43.8245267 23.9008246,43.1396829 C23.2376118,42.6837879 22.4390902,42.3880903 21.6625647,42.1444568 C20.5787616,41.8040374 19.8162335,42.6404011 19.617603,43.5762207 C19.5022906,44.1202243 19.5449495,44.6955999 19.4702964,45.2502832 C19.3136582,46.4103792 19.1363571,47.5678052 18.9483912,48.7232287 C18.8217476,49.5048584 18.7490941,50.3111851 18.4991396,51.0541004 C17.9225777,52.7702147 17.2753619,54.4636344 16.6088164,56.1477093 C16.3095375,56.9039743 15.9989272,57.6962838 15.5083497,58.3277284 C14.8604675,59.1607548 14.0919405,59.9283672 13.2674236,60.5898488 C11.3124456,62.1591155 8.9928671,62.3066306 6.59863552,62.1918225 C4.86095131,62.1083863 3.11660163,62.1798077 1.37558469,62.1577805 C0.347771469,62.1450982 -0.0688194919,61.7606246 0.00916633607,60.7286865 C0.143808535,58.9444883 0.36710129,57.1662975 0.576396589,55.3887742 C0.683043875,54.4856616 0.791024252,53.5765415 0.988988277,52.6907835 C1.23627667,51.5834192 1.56888289,50.4940771 1.88082621,49.4013976 C2.04213023,48.8360344 2.18543752,48.2573214 2.42806009,47.7260001 C2.86997978,46.758141 3.2785722,45.7502325 3.88446209,44.8885042 C4.85428585,43.5088044 5.89209725,42.1558041 7.05855194,40.943644 C7.80908222,40.1633493 8.80356816,39.5893087 9.75672828,39.0406327 C10.6892255,38.5033041 11.7077071,38.114158 12.6888621,37.6609329 C12.7248556,37.6442457 12.7628487,37.6295609 12.8008418,37.6182136 C15.4063683,36.8212317 18.109877,36.6990812 20.7340667,37.1342841 C22.4850819,37.4246418 24.2220995,38.2509932 25.7738176,39.1634507 C27.4295167,40.1366497 28.8805863,41.4676229 30.3763145,42.6978052 C30.8182342,43.0615867 31.0728546,43.6449721 31.4794474,44.0634877 C31.7007405,44.2911015 32.0606751,44.38455 32.3586209,44.5387399 C32.5512526,44.1616086 32.8991894,43.7898172 32.9105206,43.407346 C32.9718428,41.3641621 32.915853,39.3183082 32.9785083,37.2751242 C32.9945054,36.7731725 33.2491258,36.2498611 33.5024131,35.796636 C33.6090604,35.6050667 33.9936571,35.4862536 34.2562761,35.4782438 C35.4160653,35.4442018 36.5778542,35.4568841 37.73831,35.463559 C38.6361468,35.4688989 39.0820658,35.9348063 39.0847319,36.832579 C39.0893978,38.7969992 39.0587367,40.7627545 39.130057,42.7245047 C39.1460541,43.1750598 39.5139873,43.6129326 39.7199498,44.0568129 C40.0405582,43.8792608 40.4164899,43.7584453 40.6711103,43.5121418 C41.1670202,43.0308822 41.5416188,42.4161248 42.0641905,41.9722446 C42.9073706,41.2566963 43.7932096,40.576525 44.7270399,39.9877997 C46.0074739,39.1808054 47.3498966,38.4732671 48.6669906,37.7236769 C48.7356448,37.684295 48.8069652,37.6462481 48.8816183,37.6222185 C51.4644822,36.7985371 54.1353302,36.7718375 56.7581869,37.1162619 C58.3205696,37.3218485 59.9329433,37.8892142 61.2946958,38.6848611 C62.951728,39.6527202 64.4727849,40.9229518 65.8611993,42.2619348 C67.3169347,43.6663318 68.3600785,45.4058082 69.1406033,47.3154943 C69.6051856,48.4515607 69.98445,49.5542526 70.1330896,50.7857698 C70.3297206,52.4097707 70.8003017,53.999062 71.0442574,55.6197254 C71.301544,57.3244924 71.4781785,59.0446117 71.5968236,60.7647309 C71.6648113,61.7606246 71.2362225,62.1477682 70.2357377,62.1544431 C67.5142322,62.1717978 64.7887275,62.2365442 62.0718879,62.1150612 C61.2053787,62.0763469 60.3048757,61.6131095 59.5236843,61.1632219 C58.5425293,60.5978587 57.5493764,59.9584042 56.7828491,59.1427326 C56.049649,58.3637729 55.5930653,57.3218225 55.0298343,56.3860028 C54.7572172,55.9334453 54.5159277,55.4615305 54.2653066,54.9956232 C54.2013182,54.8768101 54.1413291,54.7519897 54.1040026,54.6224968 C53.9373662,54.0411139 53.7514,53.4624009 53.6254229,52.8716731 C53.3981308,51.8103655 53.1835032,50.745053 53.0102013,49.6744006 C52.8055718,48.4095089 52.6662638,47.1352723 52.4689663,45.8697131 C52.3403231,45.0466991 52.1450252,44.2350324 52.0050507,43.4140209 C51.7884234,42.1397843 50.6432981,41.6878943 49.5354994,42.4187948 C49.1615674,42.6657657 48.7269797,42.8426503 48.2977244,42.981488 C46.4833874,43.5708808 45.2736073,44.9545856 43.9898406,46.236832 C42.5527684,47.672601 41.8215679,49.527553 40.9317296,51.3050763 C40.2611848,52.6447268 39.8565917,54.0177517 39.4826596,55.4548556 C38.6074853,58.8123255 39.4546647,62.2018348 39.0873981,64.9572296" id="Fill-16" fill="#F9F3E1"></path>
                    <path d="M60.5966893,13.4744009 C60.5966893,14.1312101 60.5580297,14.5163513 60.6033548,14.8921476 C60.7853217,16.4000054 59.7675067,17.2016597 58.7863516,18.0133264 C57.8451893,18.7922861 56.8840307,19.5465487 55.9168731,20.2934689 C54.5477886,21.3507716 53.1533753,22.3760347 51.7916228,23.4433497 C50.1572531,24.7249286 48.5802064,26.0819338 46.9138425,27.318791 C45.5907496,28.3006674 44.1570102,29.1330262 42.7959242,30.0661759 C41.8787575,30.6949506 40.883605,30.9639487 39.7871376,31.1188061 C38.5680258,31.2916858 37.391573,31.9131181 36.1811263,31.9618448 C34.8660319,32.0152439 33.5296081,31.6568023 32.209848,31.4345284 C31.6079573,31.3330701 30.9867369,31.2069147 30.439503,30.9519339 C29.4530156,30.4906989 28.4891908,29.9653851 27.5640256,29.389342 C26.6081993,28.7939418 25.6996977,28.1211129 24.789863,27.4556263 C24.07266,26.9316474 23.3761199,26.3776315 22.6855788,25.8182757 C21.5797797,24.9218379 20.4966432,23.9973656 19.3848453,23.1089377 C17.7031509,21.7639473 16.0054594,20.4389815 14.3150999,19.1060059 C13.5052471,18.4672189 12.6940612,17.8311019 11.8882076,17.1889774 C11.2163297,16.6536512 10.9857049,15.9174108 10.9730406,15.0937293 C10.9590431,14.232001 10.9957031,13.3682702 10.9450457,12.5085443 C10.8557286,10.9786594 11.6789123,9.89866216 12.7360535,9.01090174 C14.1491301,7.82477373 15.7968306,7.21802619 17.6911531,7.41894039 C19.10223,7.56912542 20.266685,8.08909938 21.0878691,9.31394177 C22.1843365,10.9492899 23.3374603,12.5465912 24.4485917,14.171927 C25.11847,15.1524684 25.7123621,16.1877439 26.4209,17.1375808 C26.9934626,17.9045257 27.6800045,18.1521641 28.6764901,17.6201753 C29.5616625,17.1475931 30.6854583,16.9813883 31.1520402,16.0182016 C31.4146591,15.4762005 31.2553548,14.7246079 31.2633533,14.0677987 C31.2640198,13.9750177 31.0900515,13.8889116 31.0713882,13.7861183 C30.8754238,12.7354906 30.7281172,11.674183 30.4988256,10.6302301 C30.3508525,9.95406375 30.1588873,9.26988749 29.8649408,8.64712022 C29.3183734,7.48902674 29.3457018,6.41703935 29.8809379,5.24225864 C30.4868277,3.91262048 31.4913119,2.95944614 32.6331044,2.20852097 C34.1774904,1.19260266 35.9051764,1.01171313 37.6448603,1.82271231 C38.3753942,2.16313172 39.1499201,2.44748205 39.8064675,2.90003962 C41.0135814,3.73239844 41.7734433,5.00396506 41.8627604,6.4016871 C41.9394132,7.59449001 41.4794968,8.82200235 41.2522047,10.0328275 C41.226876,10.1676602 41.1615545,10.2944832 41.1342262,10.4293159 C40.9122665,11.5286704 40.7129694,12.6333647 40.4683472,13.7280468 C40.3696984,14.1699245 40.0797511,14.5824327 40.0450908,15.0216405 C39.9431093,16.3138993 40.1710679,16.5501904 41.4035106,16.9914007 C42.0034015,17.2063321 42.5313056,17.6495449 43.1391951,17.8057373 C43.5897799,17.9218804 44.3389771,17.9318927 44.5702684,17.6595572 C45.4674387,16.608262 46.2159693,15.4288088 47.008492,14.289405 C47.813679,13.1306441 48.574874,11.9398436 49.4127217,10.8057798 C50.0819335,9.90133212 50.770475,8.99287954 51.5716627,8.21058239 C52.5388203,7.26742038 55.7162429,7.11189543 56.6554056,7.80274659 C57.4225995,8.3681098 58.367761,8.72254648 59.0463044,9.36867587 C60.2687489,10.5314418 60.979953,11.9712156 60.5966893,13.4744009" id="Fill-18" fill="#F9F3E1"></path>
                </g>
            </g>
        </g>
    </g>
</svg>